<svg xmlns="http://www.w3.org/2000/svg" viewBox="0 0 480 280" width="480" height="280">
<defs>
  <marker id="pf" markerWidth="8" markerHeight="8" refX="3" refY="3" orient="auto"><path d="M0,0 L6,3 L0,6 Z" fill="#1e293b"/></marker>
</defs>
<line x1="40" y1="240" x2="200" y2="240" stroke="#1e293b" stroke-width="1.3" marker-end="url(#pf)"/>
<line x1="40" y1="240" x2="40" y2="50" stroke="#1e293b" stroke-width="1.3" marker-end="url(#pf)"/>
<text x="195" y="232" font-size="12" font-family="sans-serif" fill="#1e293b" text-anchor="end">H</text>
<text x="48" y="58" font-size="12" font-family="sans-serif" fill="#1e293b" text-anchor="start">B</text>
<path d="M 55,225 Q 95,210 120,150 Q 140,100 175,75" fill="none" stroke="#dc2626" stroke-width="1.8"/>
<circle cx="122" cy="147" r="22" fill="none" stroke="#6b7280" stroke-width="1.4" stroke-dasharray="4,3"/>
<line x1="135.2" y1="129.4" x2="270" y2="40" stroke="#6b7280" stroke-width="1.1" stroke-dasharray="4,3"/>
<line x1="140.7" y1="158.0" x2="270" y2="240" stroke="#6b7280" stroke-width="1.1" stroke-dasharray="4,3"/>
<rect x="270" y="40" width="175" height="200" fill="white" stroke="#1e293b" stroke-width="1.4"/>
<path d="M 285,220 L 315,220 L 315,190 L 345,190 L 345,152 L 378,152 L 378,110 L 410,110 L 410,78 L 430,78" fill="none" stroke="#dc2626" stroke-width="1.8" stroke-linejoin="round"/>
<path d="M 285,222 Q 355,190 430,78" fill="none" stroke="#6b7280" stroke-width="1.3" stroke-dasharray="5,4"/>
</svg>