<svg xmlns="http://www.w3.org/2000/svg" viewBox="0 0 400 380" width="400" height="380">
  <defs>
    <marker id="feldpf" markerWidth="7" markerHeight="7" refX="3" refY="3" orient="auto">
      <path d="M0,0 L6,3 L0,6 Z" fill="#6b7280"/>
    </marker>
    <marker id="strompf" markerWidth="7" markerHeight="7" refX="3" refY="3" orient="auto">
      <path d="M0,0 L6,3 L0,6 Z" fill="#2563eb"/>
    </marker>
    <marker id="kraftpf" markerWidth="7" markerHeight="7" refX="3" refY="3" orient="auto">
      <path d="M0,0 L6,3 L0,6 Z" fill="#dc2626"/>
    </marker>
  </defs>
<path d="M 120,140 L 120,330 L 280,330 L 280,140 L 250,140 L 250,300 L 150,300 L 150,140 Z" fill="#e2e8f0" stroke="#1e293b" stroke-width="1.8" stroke-linejoin="round"/>
<rect x="108" y="100" width="184" height="24" fill="#e2e8f0" stroke="#1e293b" stroke-width="1.8"/>
<text x="124" y="116" font-size="13" font-family="sans-serif" fill="#1e293b" text-anchor="middle">Anker</text>
<line x1="120" y1="124" x2="120" y2="140" stroke="#6b7280" stroke-width="1" stroke-dasharray="3,2"/>
<line x1="150" y1="124" x2="150" y2="140" stroke="#6b7280" stroke-width="1" stroke-dasharray="3,2"/>
<line x1="250" y1="124" x2="250" y2="140" stroke="#6b7280" stroke-width="1" stroke-dasharray="3,2"/>
<line x1="280" y1="124" x2="280" y2="140" stroke="#6b7280" stroke-width="1" stroke-dasharray="3,2"/>
<line x1="78" y1="124" x2="100" y2="124" stroke="#6b7280" stroke-width="1"/>
<line x1="78" y1="140" x2="100" y2="140" stroke="#6b7280" stroke-width="1"/>
<line x1="89" y1="124" x2="89" y2="140" stroke="#6b7280" stroke-width="1" marker-start="url(#feldpf)" marker-end="url(#feldpf)"/>
<text x="68" y="136" font-size="12" font-family="sans-serif" fill="#6b7280" text-anchor="end">Luftspalt</text>
<ellipse cx="135" cy="168" rx="26" ry="11" fill="none" stroke="#1e293b" stroke-width="1.6"/>
<ellipse cx="135" cy="190" rx="26" ry="11" fill="none" stroke="#1e293b" stroke-width="1.6"/>
<ellipse cx="135" cy="212" rx="26" ry="11" fill="none" stroke="#1e293b" stroke-width="1.6"/>
<ellipse cx="135" cy="234" rx="26" ry="11" fill="none" stroke="#1e293b" stroke-width="1.6"/>
<ellipse cx="135" cy="256" rx="26" ry="11" fill="none" stroke="#1e293b" stroke-width="1.6"/>
<ellipse cx="135" cy="278" rx="26" ry="11" fill="none" stroke="#1e293b" stroke-width="1.6"/>
<text x="48" y="195" font-size="14" font-family="sans-serif" fill="#1e293b" text-anchor="end">N</text>
<line x1="55" y1="252" x2="100" y2="252" stroke="#2563eb" stroke-width="1.6" marker-end="url(#strompf)"/>
<text x="48" y="257" font-size="14" font-family="sans-serif" fill="#2563eb" text-anchor="end">I</text>
<path d="M 205,112 L 235,112 L 235,300 L 175,300 L 175,112 L 205,112" fill="none" stroke="#6b7280" stroke-width="1.3" stroke-dasharray="6,4" marker-end="url(#feldpf)"/>
<text x="252" y="208" font-size="14" font-family="sans-serif" fill="#6b7280" text-anchor="start">Φ</text>
<line x1="345" y1="105" x2="345" y2="140" stroke="#dc2626" stroke-width="1.8" marker-end="url(#kraftpf)"/>
<text x="355" y="126" font-size="14" font-family="sans-serif" fill="#dc2626" text-anchor="start">F</text>
</svg>