<svg xmlns="http://www.w3.org/2000/svg" viewBox="0 0 420 195" width="420" height="195">
  <defs>
    <marker id="pfeil_r" markerWidth="8" markerHeight="8" refX="3" refY="3" orient="auto">
      <path d="M0,0 L6,3 L0,6 Z" fill="#dc2626"/>
    </marker>
  </defs>
<circle cx="140" cy="100" r="18" fill="none" stroke="#1e293b" stroke-width="1.5"/>
<line x1="132" y1="92" x2="148" y2="108" stroke="#1e293b" stroke-width="1.5" stroke-linecap="round"/>
<line x1="132" y1="108" x2="148" y2="92" stroke="#1e293b" stroke-width="1.5" stroke-linecap="round"/>
<text x="140" y="70" font-size="14" font-family="sans-serif" fill="#1e293b" text-anchor="middle">I₁</text>
<circle cx="280" cy="100" r="18" fill="none" stroke="#1e293b" stroke-width="1.5"/>
<line x1="272" y1="92" x2="288" y2="108" stroke="#1e293b" stroke-width="1.5" stroke-linecap="round"/>
<line x1="272" y1="108" x2="288" y2="92" stroke="#1e293b" stroke-width="1.5" stroke-linecap="round"/>
<text x="280" y="70" font-size="14" font-family="sans-serif" fill="#1e293b" text-anchor="middle">I₂</text>
<line x1="164" y1="88" x2="250" y2="88" stroke="#dc2626" stroke-width="1.8" marker-end="url(#pfeil_r)"/>
<text x="180" y="80" font-size="13" font-family="sans-serif" fill="#dc2626" text-anchor="middle">F₁</text>
<line x1="256" y1="112" x2="170" y2="112" stroke="#dc2626" stroke-width="1.8" marker-end="url(#pfeil_r)"/>
<text x="240" y="132" font-size="13" font-family="sans-serif" fill="#dc2626" text-anchor="middle">F₂</text>
<line x1="140" y1="165" x2="140" y2="124" stroke="#1e293b" stroke-width="1" stroke-dasharray="3,3"/>
<line x1="280" y1="165" x2="280" y2="124" stroke="#1e293b" stroke-width="1" stroke-dasharray="3,3"/>
<line x1="140" y1="165" x2="280" y2="165" stroke="#1e293b" stroke-width="1.2"/>
<text x="210" y="183" font-size="13" font-family="sans-serif" fill="#1e293b" text-anchor="middle">a</text>
</svg>