<svg xmlns="http://www.w3.org/2000/svg" viewBox="0 0 560 320" width="560" height="320">
<defs>
  <marker id="pfeil_b" markerWidth="8" markerHeight="8" refX="3" refY="3" orient="auto"><path d="M0,0 L6,3 L0,6 Z" fill="#2563eb"/></marker>
  <marker id="pfeil_r" markerWidth="8" markerHeight="8" refX="3" refY="3" orient="auto"><path d="M0,0 L6,3 L0,6 Z" fill="#dc2626"/></marker>
</defs>
<line x1="60" y1="250" x2="180" y2="250" stroke="#1e293b" stroke-width="1.5" stroke-linecap="round"/>
<line x1="60" y1="70" x2="95" y2="70" stroke="#1e293b" stroke-width="1.5" stroke-linecap="round"/>
<line x1="145" y1="70" x2="180" y2="70" stroke="#1e293b" stroke-width="1.5" stroke-linecap="round"/>
<line x1="60" y1="70" x2="60" y2="142" stroke="#1e293b" stroke-width="1.5" stroke-linecap="round"/>
<line x1="60" y1="178" x2="60" y2="250" stroke="#1e293b" stroke-width="1.5" stroke-linecap="round"/>
<line x1="180" y1="70" x2="180" y2="250" stroke="#1e293b" stroke-width="1.5" stroke-linecap="round"/>
<circle cx="60" cy="160" r="18" fill="white" stroke="#1e293b" stroke-width="1.5"/>
<line x1="60" y1="148" x2="60" y2="172" stroke="#1e293b" stroke-width="1.3" stroke-linecap="round"/>
<line x1="51" y1="151" x2="58" y2="151" stroke="#1e293b" stroke-width="1.2" stroke-linecap="round"/>
<line x1="54.5" y1="147.5" x2="54.5" y2="154.5" stroke="#1e293b" stroke-width="1.2" stroke-linecap="round"/>
<text x="34" y="165" font-size="15" font-family="sans-serif" fill="#1e293b" text-anchor="middle">U</text>
<rect x="95" y="59" width="50" height="22" fill="white" stroke="#1e293b" stroke-width="1.5"/>
<text x="120" y="74" font-size="14" font-family="sans-serif" fill="#1e293b" text-anchor="middle">R</text>
<line x1="180" y1="135" x2="180" y2="185" stroke="#2563eb" stroke-width="2" marker-end="url(#pfeil_b)"/>
<text x="197" y="164" font-size="15" font-family="sans-serif" fill="#2563eb" text-anchor="middle">I</text>
<line x1="380" y1="70" x2="380" y2="142" stroke="#1e293b" stroke-width="1.5" stroke-linecap="round"/>
<line x1="380" y1="178" x2="380" y2="250" stroke="#1e293b" stroke-width="1.5" stroke-linecap="round"/>
<line x1="380" y1="70" x2="415" y2="70" stroke="#1e293b" stroke-width="1.5" stroke-linecap="round"/>
<line x1="465" y1="70" x2="500" y2="70" stroke="#1e293b" stroke-width="1.5" stroke-linecap="round"/>
<line x1="380" y1="250" x2="415" y2="250" stroke="#1e293b" stroke-width="1.5" stroke-linecap="round"/>
<line x1="465" y1="250" x2="500" y2="250" stroke="#1e293b" stroke-width="1.5" stroke-linecap="round"/>
<line x1="500" y1="70" x2="500" y2="250" stroke="#1e293b" stroke-width="1.5" stroke-linecap="round"/>
<circle cx="380" cy="160" r="18" fill="white" stroke="#1e293b" stroke-width="1.5"/>
<path d="M 374,150 A 4,3 0 0,1 386,150" fill="none" stroke="#1e293b" stroke-width="1.1"/>
<path d="M 374,156 A 4,3 0 0,1 386,156" fill="none" stroke="#1e293b" stroke-width="1.1"/>
<path d="M 374,162 A 4,3 0 0,1 386,162" fill="none" stroke="#1e293b" stroke-width="1.1"/>
<path d="M 374,168 A 4,3 0 0,1 386,168" fill="none" stroke="#1e293b" stroke-width="1.1"/>
<text x="350" y="158" font-size="14" font-family="sans-serif" fill="#1e293b" text-anchor="middle">&#920;</text>
<text x="350" y="174" font-size="11" font-family="sans-serif" fill="#1e293b" text-anchor="middle">= N&#183;I</text>
<rect x="415" y="59" width="50" height="22" fill="white" stroke="#1e293b" stroke-width="1.5"/>
<text x="440" y="74" font-size="12" font-family="sans-serif" fill="#1e293b" text-anchor="middle">R_m,Fe</text>
<rect x="415" y="239" width="50" height="22" fill="white" stroke="#1e293b" stroke-width="1.5"/>
<text x="440" y="254" font-size="11" font-family="sans-serif" fill="#1e293b" text-anchor="middle">R_m,Luft</text>
<line x1="500" y1="135" x2="500" y2="185" stroke="#dc2626" stroke-width="2" marker-end="url(#pfeil_r)"/>
<text x="517" y="164" font-size="15" font-family="sans-serif" fill="#dc2626" text-anchor="middle">&#934;</text>
<text x="270" y="120" font-size="14" font-family="sans-serif" fill="#1e293b" text-anchor="middle">U &#8596; &#920;</text>
<text x="270" y="166" font-size="14" font-family="sans-serif" fill="#1e293b" text-anchor="middle">I &#8596; &#934;</text>
<text x="270" y="212" font-size="14" font-family="sans-serif" fill="#1e293b" text-anchor="middle">R &#8596; R_m</text>
</svg>