<svg xmlns="http://www.w3.org/2000/svg" viewBox="0 0 300 300" width="300" height="300">
  <defs>
    <marker id="feldpf" markerWidth="8" markerHeight="8" refX="3" refY="3" orient="auto">
      <path d="M0,0 L6,3 L0,6 Z" fill="#6b7280"/>
    </marker>
  </defs>
<circle cx="150" cy="150" r="14" fill="none" stroke="#1e293b" stroke-width="1.8"/>
<circle cx="150" cy="150" r="4" fill="#1e293b"/>
<text x="124" y="155" font-size="15" font-family="sans-serif" fill="#2563eb" text-anchor="end">I</text>
<circle cx="150" cy="150" r="45" fill="none" stroke="#6b7280" stroke-width="1.3" stroke-dasharray="6,4"/>
<circle cx="150" cy="150" r="75" fill="none" stroke="#6b7280" stroke-width="1.3" stroke-dasharray="6,4"/>
<circle cx="150" cy="150" r="105" fill="none" stroke="#6b7280" stroke-width="1.3" stroke-dasharray="6,4"/>
<path d="M 225.0,147.4 A 75,75 0 0,1 220.5,124.3" fill="none" stroke="#6b7280" stroke-width="1.6" marker-end="url(#feldpf)"/>
<path d="M 147.4,75.0 A 75,75 0 0,1 124.3,79.5" fill="none" stroke="#6b7280" stroke-width="1.6" marker-end="url(#feldpf)"/>
<path d="M 75.0,152.6 A 75,75 0 0,1 79.5,175.7" fill="none" stroke="#6b7280" stroke-width="1.6" marker-end="url(#feldpf)"/>
<path d="M 152.6,225.0 A 75,75 0 0,1 175.7,220.5" fill="none" stroke="#6b7280" stroke-width="1.6" marker-end="url(#feldpf)"/>
<text x="198.2" y="84.5" font-size="15" font-family="sans-serif" fill="#6b7280" text-anchor="middle">B</text>
</svg>