<svg xmlns="http://www.w3.org/2000/svg" viewBox="0 0 480 260" width="480" height="260">
<defs>
  <marker id="pf" markerWidth="7" markerHeight="7" refX="2.6" refY="2.6" orient="auto"><path d="M0,0 L5.2,2.6 L0,5.2 Z" fill="#1e293b"/></marker>
  <marker id="pf_b" markerWidth="7" markerHeight="7" refX="2.6" refY="2.6" orient="auto"><path d="M0,0 L5.2,2.6 L0,5.2 Z" fill="#2563eb"/></marker>
</defs>
<rect x="63.0" y="38.0" width="50" height="50" fill="none" stroke="#6b7280" stroke-width="1" stroke-dasharray="3,3"/>
<line x1="71.1" y1="57.7" x2="91.9" y2="45.7" stroke="#1e293b" stroke-width="1.6" marker-end="url(#pf)"/>
<line x1="77.6" y1="69.0" x2="98.4" y2="57.0" stroke="#1e293b" stroke-width="1.6" marker-end="url(#pf)"/>
<line x1="84.1" y1="80.3" x2="104.9" y2="68.3" stroke="#1e293b" stroke-width="1.6" marker-end="url(#pf)"/>
<rect x="119.0" y="38.0" width="50" height="50" fill="none" stroke="#6b7280" stroke-width="1" stroke-dasharray="3,3"/>
<line x1="150.8" y1="79.3" x2="128.3" y2="71.1" stroke="#1e293b" stroke-width="1.6" marker-end="url(#pf)"/>
<line x1="155.3" y1="67.1" x2="132.7" y2="58.9" stroke="#1e293b" stroke-width="1.6" marker-end="url(#pf)"/>
<line x1="159.7" y1="54.9" x2="137.2" y2="46.7" stroke="#1e293b" stroke-width="1.6" marker-end="url(#pf)"/>
<rect x="175.0" y="38.0" width="50" height="50" fill="none" stroke="#6b7280" stroke-width="1" stroke-dasharray="3,3"/>
<line x1="210.7" y1="48.9" x2="214.9" y2="72.6" stroke="#1e293b" stroke-width="1.6" marker-end="url(#pf)"/>
<line x1="197.9" y1="51.2" x2="202.1" y2="74.8" stroke="#1e293b" stroke-width="1.6" marker-end="url(#pf)"/>
<line x1="185.1" y1="53.4" x2="189.3" y2="77.1" stroke="#1e293b" stroke-width="1.6" marker-end="url(#pf)"/>
<rect x="63.0" y="94.0" width="50" height="50" fill="none" stroke="#6b7280" stroke-width="1" stroke-dasharray="3,3"/>
<line x1="77.3" y1="133.1" x2="73.1" y2="109.4" stroke="#1e293b" stroke-width="1.6" marker-end="url(#pf)"/>
<line x1="90.1" y1="130.8" x2="85.9" y2="107.2" stroke="#1e293b" stroke-width="1.6" marker-end="url(#pf)"/>
<line x1="102.9" y1="128.6" x2="98.7" y2="104.9" stroke="#1e293b" stroke-width="1.6" marker-end="url(#pf)"/>
<rect x="119.0" y="94.0" width="50" height="50" fill="none" stroke="#6b7280" stroke-width="1" stroke-dasharray="3,3"/>
<line x1="159.7" y1="127.1" x2="137.2" y2="135.3" stroke="#1e293b" stroke-width="1.6" marker-end="url(#pf)"/>
<line x1="155.3" y1="114.9" x2="132.7" y2="123.1" stroke="#1e293b" stroke-width="1.6" marker-end="url(#pf)"/>
<line x1="150.8" y1="102.7" x2="128.3" y2="110.9" stroke="#1e293b" stroke-width="1.6" marker-end="url(#pf)"/>
<rect x="175.0" y="94.0" width="50" height="50" fill="none" stroke="#6b7280" stroke-width="1" stroke-dasharray="3,3"/>
<line x1="188.0" y1="106.0" x2="212.0" y2="106.0" stroke="#1e293b" stroke-width="1.6" marker-end="url(#pf)"/>
<line x1="188.0" y1="119.0" x2="212.0" y2="119.0" stroke="#1e293b" stroke-width="1.6" marker-end="url(#pf)"/>
<line x1="188.0" y1="132.0" x2="212.0" y2="132.0" stroke="#1e293b" stroke-width="1.6" marker-end="url(#pf)"/>
<rect x="63.0" y="150.0" width="50" height="50" fill="none" stroke="#6b7280" stroke-width="1" stroke-dasharray="3,3"/>
<line x1="87.2" y1="157.3" x2="105.5" y2="172.8" stroke="#1e293b" stroke-width="1.6" marker-end="url(#pf)"/>
<line x1="78.8" y1="167.3" x2="97.2" y2="182.7" stroke="#1e293b" stroke-width="1.6" marker-end="url(#pf)"/>
<line x1="70.5" y1="177.2" x2="88.8" y2="192.7" stroke="#1e293b" stroke-width="1.6" marker-end="url(#pf)"/>
<rect x="119.0" y="150.0" width="50" height="50" fill="none" stroke="#6b7280" stroke-width="1" stroke-dasharray="3,3"/>
<line x1="127.7" y1="181.8" x2="135.9" y2="159.3" stroke="#1e293b" stroke-width="1.6" marker-end="url(#pf)"/>
<line x1="139.9" y1="186.3" x2="148.1" y2="163.7" stroke="#1e293b" stroke-width="1.6" marker-end="url(#pf)"/>
<line x1="152.1" y1="190.7" x2="160.3" y2="168.2" stroke="#1e293b" stroke-width="1.6" marker-end="url(#pf)"/>
<rect x="175.0" y="150.0" width="50" height="50" fill="none" stroke="#6b7280" stroke-width="1" stroke-dasharray="3,3"/>
<line x1="217.7" y1="174.2" x2="202.2" y2="192.5" stroke="#1e293b" stroke-width="1.6" marker-end="url(#pf)"/>
<line x1="207.7" y1="165.8" x2="192.3" y2="184.2" stroke="#1e293b" stroke-width="1.6" marker-end="url(#pf)"/>
<line x1="197.8" y1="157.5" x2="182.3" y2="175.8" stroke="#1e293b" stroke-width="1.6" marker-end="url(#pf)"/>
<rect x="303.0" y="38.0" width="50" height="50" fill="none" stroke="#6b7280" stroke-width="1" stroke-dasharray="3,3"/>
<line x1="316.0" y1="50.0" x2="340.0" y2="50.0" stroke="#1e293b" stroke-width="1.6" marker-end="url(#pf)"/>
<line x1="316.0" y1="63.0" x2="340.0" y2="63.0" stroke="#1e293b" stroke-width="1.6" marker-end="url(#pf)"/>
<line x1="316.0" y1="76.0" x2="340.0" y2="76.0" stroke="#1e293b" stroke-width="1.6" marker-end="url(#pf)"/>
<rect x="359.0" y="38.0" width="50" height="50" fill="none" stroke="#6b7280" stroke-width="1" stroke-dasharray="3,3"/>
<line x1="372.0" y1="50.0" x2="396.0" y2="50.0" stroke="#1e293b" stroke-width="1.6" marker-end="url(#pf)"/>
<line x1="372.0" y1="63.0" x2="396.0" y2="63.0" stroke="#1e293b" stroke-width="1.6" marker-end="url(#pf)"/>
<line x1="372.0" y1="76.0" x2="396.0" y2="76.0" stroke="#1e293b" stroke-width="1.6" marker-end="url(#pf)"/>
<rect x="415.0" y="38.0" width="50" height="50" fill="none" stroke="#6b7280" stroke-width="1" stroke-dasharray="3,3"/>
<line x1="428.0" y1="50.0" x2="452.0" y2="50.0" stroke="#1e293b" stroke-width="1.6" marker-end="url(#pf)"/>
<line x1="428.0" y1="63.0" x2="452.0" y2="63.0" stroke="#1e293b" stroke-width="1.6" marker-end="url(#pf)"/>
<line x1="428.0" y1="76.0" x2="452.0" y2="76.0" stroke="#1e293b" stroke-width="1.6" marker-end="url(#pf)"/>
<rect x="303.0" y="94.0" width="50" height="50" fill="none" stroke="#6b7280" stroke-width="1" stroke-dasharray="3,3"/>
<line x1="316.0" y1="106.0" x2="340.0" y2="106.0" stroke="#1e293b" stroke-width="1.6" marker-end="url(#pf)"/>
<line x1="316.0" y1="119.0" x2="340.0" y2="119.0" stroke="#1e293b" stroke-width="1.6" marker-end="url(#pf)"/>
<line x1="316.0" y1="132.0" x2="340.0" y2="132.0" stroke="#1e293b" stroke-width="1.6" marker-end="url(#pf)"/>
<rect x="359.0" y="94.0" width="50" height="50" fill="none" stroke="#6b7280" stroke-width="1" stroke-dasharray="3,3"/>
<line x1="372.0" y1="106.0" x2="396.0" y2="106.0" stroke="#1e293b" stroke-width="1.6" marker-end="url(#pf)"/>
<line x1="372.0" y1="119.0" x2="396.0" y2="119.0" stroke="#1e293b" stroke-width="1.6" marker-end="url(#pf)"/>
<line x1="372.0" y1="132.0" x2="396.0" y2="132.0" stroke="#1e293b" stroke-width="1.6" marker-end="url(#pf)"/>
<rect x="415.0" y="94.0" width="50" height="50" fill="none" stroke="#6b7280" stroke-width="1" stroke-dasharray="3,3"/>
<line x1="428.0" y1="106.0" x2="452.0" y2="106.0" stroke="#1e293b" stroke-width="1.6" marker-end="url(#pf)"/>
<line x1="428.0" y1="119.0" x2="452.0" y2="119.0" stroke="#1e293b" stroke-width="1.6" marker-end="url(#pf)"/>
<line x1="428.0" y1="132.0" x2="452.0" y2="132.0" stroke="#1e293b" stroke-width="1.6" marker-end="url(#pf)"/>
<rect x="303.0" y="150.0" width="50" height="50" fill="none" stroke="#6b7280" stroke-width="1" stroke-dasharray="3,3"/>
<line x1="316.0" y1="162.0" x2="340.0" y2="162.0" stroke="#1e293b" stroke-width="1.6" marker-end="url(#pf)"/>
<line x1="316.0" y1="175.0" x2="340.0" y2="175.0" stroke="#1e293b" stroke-width="1.6" marker-end="url(#pf)"/>
<line x1="316.0" y1="188.0" x2="340.0" y2="188.0" stroke="#1e293b" stroke-width="1.6" marker-end="url(#pf)"/>
<rect x="359.0" y="150.0" width="50" height="50" fill="none" stroke="#6b7280" stroke-width="1" stroke-dasharray="3,3"/>
<line x1="372.0" y1="162.0" x2="396.0" y2="162.0" stroke="#1e293b" stroke-width="1.6" marker-end="url(#pf)"/>
<line x1="372.0" y1="175.0" x2="396.0" y2="175.0" stroke="#1e293b" stroke-width="1.6" marker-end="url(#pf)"/>
<line x1="372.0" y1="188.0" x2="396.0" y2="188.0" stroke="#1e293b" stroke-width="1.6" marker-end="url(#pf)"/>
<rect x="415.0" y="150.0" width="50" height="50" fill="none" stroke="#6b7280" stroke-width="1" stroke-dasharray="3,3"/>
<line x1="428.0" y1="162.0" x2="452.0" y2="162.0" stroke="#1e293b" stroke-width="1.6" marker-end="url(#pf)"/>
<line x1="428.0" y1="175.0" x2="452.0" y2="175.0" stroke="#1e293b" stroke-width="1.6" marker-end="url(#pf)"/>
<line x1="428.0" y1="188.0" x2="452.0" y2="188.0" stroke="#1e293b" stroke-width="1.6" marker-end="url(#pf)"/>
<line x1="242" y1="119.0" x2="286" y2="119.0" stroke="#2563eb" stroke-width="2" marker-end="url(#pf_b)"/>
<text x="264.0" y="109.0" font-size="14" font-family="sans-serif" fill="#2563eb" text-anchor="middle">H</text>
</svg>