<svg xmlns="http://www.w3.org/2000/svg" viewBox="-40 0 480 380" width="480" height="380">
<line x1="70" y1="70" x2="70" y2="167.0" stroke="#1e293b" stroke-width="1.5" stroke-linecap="round"/>
<line x1="70" y1="203.0" x2="70" y2="300" stroke="#1e293b" stroke-width="1.5" stroke-linecap="round"/>
<circle cx="70" cy="185.0" r="18" fill="white" stroke="#1e293b" stroke-width="1.5"/>
<line x1="70" y1="173.0" x2="70" y2="197.0" stroke="#1e293b" stroke-width="1.2" stroke-linecap="round"/>
<line x1="61" y1="176.0" x2="67" y2="176.0" stroke="#1e293b" stroke-width="1.1" stroke-linecap="round"/>
<line x1="64" y1="173.0" x2="64" y2="179.0" stroke="#1e293b" stroke-width="1.1" stroke-linecap="round"/>
<text x="40" y="189.0" font-size="13" font-family="sans-serif" fill="#1e293b" text-anchor="end">U_q = 12 V</text>
<line x1="70" y1="70" x2="108.0" y2="70" stroke="#1e293b" stroke-width="1.5" stroke-linecap="round"/>
<line x1="108.0" y1="70" x2="130.0" y2="70" stroke="#1e293b" stroke-width="1.5" stroke-linecap="round"/>
<line x1="176.0" y1="70" x2="198.0" y2="70" stroke="#1e293b" stroke-width="1.5" stroke-linecap="round"/>
<rect x="130.0" y="61.0" width="46" height="18" fill="white" stroke="#1e293b" stroke-width="1.5"/>
<text x="153.0" y="54" font-size="12" font-family="sans-serif" fill="#1e293b" text-anchor="middle">R1 = 200 Ω</text>
<line x1="198.0" y1="70" x2="220" y2="70" stroke="#1e293b" stroke-width="1.5" stroke-linecap="round"/>
<circle cx="220" cy="70" r="3" fill="#1e293b"/>
<text x="216" y="56" font-size="14" font-family="sans-serif" fill="#1e293b" text-anchor="end">A</text>
<line x1="220" y1="70" x2="340" y2="70" stroke="#1e293b" stroke-width="1.5" stroke-linecap="round"/>
<circle cx="340" cy="70" r="3" fill="#1e293b"/>
<line x1="220" y1="70" x2="220" y2="162.0" stroke="#1e293b" stroke-width="1.5" stroke-linecap="round"/>
<line x1="220" y1="208.0" x2="220" y2="300" stroke="#1e293b" stroke-width="1.5" stroke-linecap="round"/>
<rect x="211.0" y="162.0" width="18" height="46" fill="white" stroke="#1e293b" stroke-width="1.5"/>
<text x="204" y="189.0" font-size="12" font-family="sans-serif" fill="#1e293b" text-anchor="end">R2 = 300 Ω</text>
<line x1="340" y1="70" x2="340" y2="162.0" stroke="#1e293b" stroke-width="1.5" stroke-linecap="round"/>
<line x1="340" y1="208.0" x2="340" y2="300" stroke="#1e293b" stroke-width="1.5" stroke-linecap="round"/>
<rect x="331.0" y="162.0" width="18" height="46" fill="white" stroke="#1e293b" stroke-width="1.5"/>
<text x="356" y="189.0" font-size="12" font-family="sans-serif" fill="#1e293b" text-anchor="start">R3 = 600 Ω</text>
<line x1="70" y1="300" x2="340" y2="300" stroke="#1e293b" stroke-width="1.5" stroke-linecap="round"/>
<line x1="145.0" y1="300" x2="145.0" y2="318" stroke="#1e293b" stroke-width="1.5" stroke-linecap="round"/>
<line x1="129.0" y1="318" x2="161.0" y2="318" stroke="#1e293b" stroke-width="2.2" stroke-linecap="round"/>
<line x1="135.0" y1="325" x2="155.0" y2="325" stroke="#1e293b" stroke-width="1.6" stroke-linecap="round"/>
<line x1="141.0" y1="332" x2="149.0" y2="332" stroke="#1e293b" stroke-width="1.2" stroke-linecap="round"/>
<text x="145.0" y="352" font-size="12" font-family="monospace" fill="#1e293b" text-anchor="middle">GND</text>
</svg>