<svg xmlns="http://www.w3.org/2000/svg" viewBox="0 0 420 380" width="420" height="380">
<defs><marker id="pf" markerWidth="8" markerHeight="8" refX="3" refY="3" orient="auto"><path d="M0,0 L6,3 L0,6 Z" fill="#2563eb"/></marker></defs>
<line x1="80" y1="60" x2="80" y2="172.0" stroke="#1e293b" stroke-width="1.5" stroke-linecap="round"/>
<line x1="80" y1="208.0" x2="80" y2="320" stroke="#1e293b" stroke-width="1.5" stroke-linecap="round"/>
<circle cx="80" cy="190.0" r="18" fill="white" stroke="#1e293b" stroke-width="1.5"/>
<line x1="80" y1="178.0" x2="80" y2="202.0" stroke="#1e293b" stroke-width="1.2" stroke-linecap="round"/>
<line x1="71" y1="181.0" x2="77" y2="181.0" stroke="#1e293b" stroke-width="1.1" stroke-linecap="round"/>
<line x1="74" y1="178.0" x2="74" y2="184.0" stroke="#1e293b" stroke-width="1.1" stroke-linecap="round"/>
<line x1="80" y1="60" x2="230" y2="60" stroke="#1e293b" stroke-width="1.5" stroke-linecap="round"/>
<line x1="80" y1="320" x2="230" y2="320" stroke="#1e293b" stroke-width="1.5" stroke-linecap="round"/>
<line x1="230" y1="60" x2="230" y2="102.0" stroke="#1e293b" stroke-width="1.5" stroke-linecap="round"/>
<line x1="230" y1="148.0" x2="230" y2="190" stroke="#1e293b" stroke-width="1.5" stroke-linecap="round"/>
<rect x="221.0" y="102.0" width="18" height="46" fill="white" stroke="#1e293b" stroke-width="1.5"/>
<text x="248" y="129.0" font-size="13" font-family="sans-serif" fill="#1e293b" text-anchor="start">R1</text>
<line x1="230" y1="190" x2="230" y2="232.0" stroke="#1e293b" stroke-width="1.5" stroke-linecap="round"/>
<line x1="230" y1="278.0" x2="230" y2="320" stroke="#1e293b" stroke-width="1.5" stroke-linecap="round"/>
<rect x="221.0" y="232.0" width="18" height="46" fill="white" stroke="#1e293b" stroke-width="1.5"/>
<text x="248" y="259.0" font-size="13" font-family="sans-serif" fill="#1e293b" text-anchor="start">R2</text>
<circle cx="230" cy="190" r="3" fill="#1e293b"/>
<line x1="230" y1="190" x2="357" y2="190" stroke="#1e293b" stroke-width="1.5" stroke-linecap="round" stroke-dasharray="4,3"/>
<circle cx="360" cy="190" r="3" fill="white" stroke="#1e293b" stroke-width="1.5"/>
<text x="360" y="176" font-size="13" font-family="sans-serif" fill="#1e293b" text-anchor="middle">Ausgang</text>
<line x1="35" y1="60" x2="35" y2="320" stroke="#2563eb" stroke-width="1" stroke-linecap="round" stroke-dasharray="3,3"/>
<line x1="35" y1="316" x2="35" y2="64" stroke="#2563eb" stroke-width="1.6" marker-end="url(#pf)"/>
<text x="23" y="194.0" font-size="13" font-family="sans-serif" fill="#2563eb" text-anchor="end">U_e</text>
<line x1="35" y1="60" x2="77" y2="60" stroke="#2563eb" stroke-width="1" stroke-linecap="round" stroke-dasharray="2,3"/>
<line x1="35" y1="320" x2="77" y2="320" stroke="#2563eb" stroke-width="1" stroke-linecap="round" stroke-dasharray="2,3"/>
<line x1="305" y1="190" x2="305" y2="320" stroke="#2563eb" stroke-width="1" stroke-linecap="round" stroke-dasharray="3,3"/>
<line x1="305" y1="316" x2="305" y2="194" stroke="#2563eb" stroke-width="1.6" marker-end="url(#pf)"/>
<text x="317" y="259.0" font-size="13" font-family="sans-serif" fill="#2563eb" text-anchor="start">U_a</text>
<line x1="155.0" y1="320" x2="155.0" y2="338" stroke="#1e293b" stroke-width="1.5" stroke-linecap="round"/>
<line x1="139.0" y1="338" x2="171.0" y2="338" stroke="#1e293b" stroke-width="2.2" stroke-linecap="round"/>
<line x1="145.0" y1="345" x2="165.0" y2="345" stroke="#1e293b" stroke-width="1.6" stroke-linecap="round"/>
<line x1="151.0" y1="352" x2="159.0" y2="352" stroke="#1e293b" stroke-width="1.2" stroke-linecap="round"/>
<text x="155.0" y="372" font-size="12" font-family="monospace" fill="#1e293b" text-anchor="middle">GND</text>
</svg>