<svg xmlns="http://www.w3.org/2000/svg" viewBox="0 0 620 340" width="620" height="340">
<circle cx="140.0" cy="70.0" r="3" fill="#1e293b"/>
<text x="140" y="56" font-size="14" font-family="sans-serif" fill="#1e293b" text-anchor="middle">1</text>
<circle cx="60.0" cy="270.0" r="3" fill="#1e293b"/>
<text x="44" y="276" font-size="14" font-family="sans-serif" fill="#1e293b" text-anchor="middle">2</text>
<circle cx="220.0" cy="270.0" r="3" fill="#1e293b"/>
<text x="236" y="276" font-size="14" font-family="sans-serif" fill="#1e293b" text-anchor="middle">3</text>
<circle cx="140" cy="205" r="2.6" fill="#1e293b"/>
<line x1="140.0" y1="205.0" x2="140.0" y2="157.5" stroke="#1e293b" stroke-width="1.5" stroke-linecap="round"/>
<line x1="140.0" y1="117.5" x2="140.0" y2="70.0" stroke="#1e293b" stroke-width="1.5" stroke-linecap="round"/>
<g transform="translate(140.0,137.5) rotate(-90.0)"><rect x="-20.0" y="-8.0" width="40" height="16" fill="white" stroke="#1e293b" stroke-width="1.5"/></g>
<text x="162.0" y="137.5" font-size="12" font-family="sans-serif" fill="#1e293b" text-anchor="middle">R1</text>
<line x1="140.0" y1="205.0" x2="115.5" y2="224.9" stroke="#1e293b" stroke-width="1.5" stroke-linecap="round"/>
<line x1="84.5" y1="250.1" x2="60.0" y2="270.0" stroke="#1e293b" stroke-width="1.5" stroke-linecap="round"/>
<g transform="translate(100.0,237.5) rotate(140.9)"><rect x="-20.0" y="-8.0" width="40" height="16" fill="white" stroke="#1e293b" stroke-width="1.5"/></g>
<text x="86.1" y="220.4" font-size="12" font-family="sans-serif" fill="#1e293b" text-anchor="middle">R2</text>
<line x1="140.0" y1="205.0" x2="164.5" y2="224.9" stroke="#1e293b" stroke-width="1.5" stroke-linecap="round"/>
<line x1="195.5" y1="250.1" x2="220.0" y2="270.0" stroke="#1e293b" stroke-width="1.5" stroke-linecap="round"/>
<g transform="translate(180.0,237.5) rotate(39.1)"><rect x="-20.0" y="-8.0" width="40" height="16" fill="white" stroke="#1e293b" stroke-width="1.5"/></g>
<text x="166.1" y="254.6" font-size="12" font-family="sans-serif" fill="#1e293b" text-anchor="middle">R3</text>
<text x="310" y="180" font-size="26" font-family="sans-serif" fill="#1e293b" text-anchor="middle">&#8660;</text>
<circle cx="460.0" cy="70.0" r="3" fill="#1e293b"/>
<text x="460" y="56" font-size="14" font-family="sans-serif" fill="#1e293b" text-anchor="middle">1</text>
<circle cx="380.0" cy="270.0" r="3" fill="#1e293b"/>
<text x="364" y="276" font-size="14" font-family="sans-serif" fill="#1e293b" text-anchor="middle">2</text>
<circle cx="540.0" cy="270.0" r="3" fill="#1e293b"/>
<text x="556" y="276" font-size="14" font-family="sans-serif" fill="#1e293b" text-anchor="middle">3</text>
<line x1="460.0" y1="70.0" x2="427.8" y2="150.5" stroke="#1e293b" stroke-width="1.5" stroke-linecap="round"/>
<line x1="412.2" y1="189.5" x2="380.0" y2="270.0" stroke="#1e293b" stroke-width="1.5" stroke-linecap="round"/>
<g transform="translate(420.0,170.0) rotate(111.8)"><rect x="-21.0" y="-8.0" width="42" height="16" fill="white" stroke="#1e293b" stroke-width="1.5"/></g>
<text x="399.6" y="161.8" font-size="12" font-family="sans-serif" fill="#1e293b" text-anchor="middle">R12</text>
<line x1="380.0" y1="270.0" x2="439.0" y2="270.0" stroke="#1e293b" stroke-width="1.5" stroke-linecap="round"/>
<line x1="481.0" y1="270.0" x2="540.0" y2="270.0" stroke="#1e293b" stroke-width="1.5" stroke-linecap="round"/>
<g transform="translate(460.0,270.0) rotate(0.0)"><rect x="-21.0" y="-8.0" width="42" height="16" fill="white" stroke="#1e293b" stroke-width="1.5"/></g>
<text x="460.0" y="292.0" font-size="12" font-family="sans-serif" fill="#1e293b" text-anchor="middle">R23</text>
<line x1="540.0" y1="270.0" x2="507.8" y2="189.5" stroke="#1e293b" stroke-width="1.5" stroke-linecap="round"/>
<line x1="492.2" y1="150.5" x2="460.0" y2="70.0" stroke="#1e293b" stroke-width="1.5" stroke-linecap="round"/>
<g transform="translate(500.0,170.0) rotate(-111.8)"><rect x="-21.0" y="-8.0" width="42" height="16" fill="white" stroke="#1e293b" stroke-width="1.5"/></g>
<text x="520.4" y="161.8" font-size="12" font-family="sans-serif" fill="#1e293b" text-anchor="middle">R31</text>
</svg>