<svg xmlns="http://www.w3.org/2000/svg" viewBox="0 0 380 320" width="380" height="320">
<defs><marker id="pf" markerWidth="8" markerHeight="8" refX="3" refY="3" orient="auto"><path d="M0,0 L6,3 L0,6 Z" fill="#dc2626"/></marker></defs>
<line x1="80" y1="90" x2="80" y2="152.0" stroke="#1e293b" stroke-width="1.5" stroke-linecap="round"/>
<line x1="80" y1="188.0" x2="80" y2="250" stroke="#1e293b" stroke-width="1.5" stroke-linecap="round"/>
<circle cx="80" cy="170.0" r="18" fill="white" stroke="#1e293b" stroke-width="1.5"/>
<line x1="68" y1="170.0" x2="92" y2="170.0" stroke="#1e293b" stroke-width="1.2" stroke-linecap="round"/>
<line x1="71" y1="161.0" x2="77" y2="161.0" stroke="#1e293b" stroke-width="1.1" stroke-linecap="round"/>
<line x1="74" y1="158.0" x2="74" y2="164.0" stroke="#1e293b" stroke-width="1.1" stroke-linecap="round"/>
<text x="46" y="174.0" font-size="13" font-family="sans-serif" fill="#1e293b" text-anchor="end">I_ges</text>
<line x1="80" y1="90" x2="300" y2="90" stroke="#1e293b" stroke-width="1.5" stroke-linecap="round"/>
<line x1="80" y1="250" x2="300" y2="250" stroke="#1e293b" stroke-width="1.5" stroke-linecap="round"/>
<circle cx="200" cy="90" r="2.6" fill="#1e293b"/>
<circle cx="200" cy="250" r="2.6" fill="#1e293b"/>
<line x1="200" y1="90" x2="200" y2="148.0" stroke="#1e293b" stroke-width="1.5" stroke-linecap="round"/>
<line x1="200" y1="192.0" x2="200" y2="250" stroke="#1e293b" stroke-width="1.5" stroke-linecap="round"/>
<rect x="191.0" y="148.0" width="18" height="44" fill="white" stroke="#1e293b" stroke-width="1.5"/>
<text x="182" y="174.0" font-size="13" font-family="sans-serif" fill="#1e293b" text-anchor="end">R1</text>
<line x1="200" y1="102" x2="200" y2="120" stroke="#dc2626" stroke-width="2" marker-end="url(#pf)"/>
<text x="216" y="114" font-size="13" font-family="sans-serif" fill="#dc2626" text-anchor="start">I1</text>
<line x1="300" y1="90" x2="300" y2="148.0" stroke="#1e293b" stroke-width="1.5" stroke-linecap="round"/>
<line x1="300" y1="192.0" x2="300" y2="250" stroke="#1e293b" stroke-width="1.5" stroke-linecap="round"/>
<rect x="291.0" y="148.0" width="18" height="44" fill="white" stroke="#1e293b" stroke-width="1.5"/>
<text x="282" y="174.0" font-size="13" font-family="sans-serif" fill="#1e293b" text-anchor="end">R2</text>
<line x1="300" y1="102" x2="300" y2="120" stroke="#dc2626" stroke-width="2" marker-end="url(#pf)"/>
<text x="316" y="114" font-size="13" font-family="sans-serif" fill="#dc2626" text-anchor="start">I2</text>
</svg>