<svg xmlns="http://www.w3.org/2000/svg" viewBox="0 0 810 320" width="810" height="320">
<g transform="translate(0,0)"><text x="125.0" y="24.0" font-size="13" font-family="sans-serif" fill="#1e293b" text-anchor="middle">Original — U1 und I_Q aktiv</text><line x1="60.0" y1="75.0" x2="60.0" y2="143.0" stroke="#1e293b" stroke-width="1.5" stroke-linecap="round"/><line x1="60.0" y1="177.0" x2="60.0" y2="245.0" stroke="#1e293b" stroke-width="1.5" stroke-linecap="round"/><circle cx="60" cy="160.0" r="17" fill="white" stroke="#1e293b" stroke-width="1.5"/><line x1="60.0" y1="147.2" x2="60.0" y2="172.8" stroke="#1e293b" stroke-width="1.5" stroke-linecap="round"/><line x1="48.5" y1="152.5" x2="56.5" y2="152.5" stroke="#1e293b" stroke-width="1.5" stroke-linecap="round"/><line x1="52.5" y1="148.5" x2="52.5" y2="156.5" stroke="#1e293b" stroke-width="1.5" stroke-linecap="round"/><text x="60.0" y="265.0" font-size="12" font-family="sans-serif" fill="#1e293b" text-anchor="middle">U1</text><circle cx="60.0" cy="75.0" r="2.6" fill="#1e293b"/><text x="60.0" y="63.0" font-size="12" font-family="sans-serif" fill="#1e293b" text-anchor="middle">A</text><line x1="60.0" y1="75.0" x2="83.0" y2="75.0" stroke="#1e293b" stroke-width="1.5" stroke-linecap="round"/><rect x="83.0" y="66" width="44" height="18" fill="white" stroke="#1e293b" stroke-width="1.5"/><line x1="127.0" y1="75.0" x2="150.0" y2="75.0" stroke="#1e293b" stroke-width="1.5" stroke-linecap="round"/><text x="105.0" y="60.0" font-size="12" font-family="sans-serif" fill="#1e293b" text-anchor="middle">R1</text><circle cx="150.0" cy="75.0" r="2.6" fill="#1e293b"/><line x1="150.0" y1="75.0" x2="215.0" y2="75.0" stroke="#1e293b" stroke-width="1.5" stroke-linecap="round"/><text x="155.0" y="63.0" font-size="12" font-family="sans-serif" fill="#1e293b" text-anchor="start">B</text><line x1="150.0" y1="75.0" x2="150.0" y2="138.0" stroke="#1e293b" stroke-width="1.5" stroke-linecap="round"/><line x1="150.0" y1="182.0" x2="150.0" y2="245.0" stroke="#1e293b" stroke-width="1.5" stroke-linecap="round"/><rect x="141.0" y="138.0" width="18" height="44" fill="white" stroke="#1e293b" stroke-width="1.5"/><text x="165.0" y="164.0" font-size="12" font-family="sans-serif" fill="#1e293b" text-anchor="start">R2</text><line x1="215.0" y1="75.0" x2="215.0" y2="143.0" stroke="#1e293b" stroke-width="1.5" stroke-linecap="round"/><line x1="215.0" y1="177.0" x2="215.0" y2="245.0" stroke="#1e293b" stroke-width="1.5" stroke-linecap="round"/><circle cx="215" cy="160.0" r="17" fill="white" stroke="#1e293b" stroke-width="1.5"/><line x1="202.2" y1="160.0" x2="227.8" y2="160.0" stroke="#1e293b" stroke-width="1.5" stroke-linecap="round"/><line x1="203.5" y1="152.5" x2="211.5" y2="152.5" stroke="#1e293b" stroke-width="1.5" stroke-linecap="round"/><line x1="207.5" y1="148.5" x2="207.5" y2="156.5" stroke="#1e293b" stroke-width="1.5" stroke-linecap="round"/><text x="215.0" y="265.0" font-size="12" font-family="sans-serif" fill="#1e293b" text-anchor="middle">I_Q</text><line x1="60.0" y1="245.0" x2="215.0" y2="245.0" stroke="#1e293b" stroke-width="1.5" stroke-linecap="round"/><line x1="182.5" y1="245.0" x2="182.5" y2="255.0" stroke="#1e293b" stroke-width="1.5" stroke-linecap="round"/><line x1="174.5" y1="255" x2="190.5" y2="255" stroke="#1e293b" stroke-width="1.8" stroke-linecap="round"/><line x1="177.5" y1="260" x2="187.5" y2="260" stroke="#1e293b" stroke-width="1.5" stroke-linecap="round"/><line x1="180.0" y1="265" x2="185.0" y2="265" stroke="#1e293b" stroke-width="1.2" stroke-linecap="round"/><text x="182.5" y="99.0" font-size="13" font-family="sans-serif" fill="#1e293b" text-anchor="middle">U_B</text></g>
<g transform="translate(280,0)"><text x="125.0" y="24.0" font-size="13" font-family="sans-serif" fill="#1e293b" text-anchor="middle">Schritt 1 — nur U1 aktiv</text><line x1="60.0" y1="75.0" x2="60.0" y2="143.0" stroke="#1e293b" stroke-width="1.5" stroke-linecap="round"/><line x1="60.0" y1="177.0" x2="60.0" y2="245.0" stroke="#1e293b" stroke-width="1.5" stroke-linecap="round"/><circle cx="60" cy="160.0" r="17" fill="white" stroke="#1e293b" stroke-width="1.5"/><line x1="60.0" y1="147.2" x2="60.0" y2="172.8" stroke="#1e293b" stroke-width="1.5" stroke-linecap="round"/><line x1="48.5" y1="152.5" x2="56.5" y2="152.5" stroke="#1e293b" stroke-width="1.5" stroke-linecap="round"/><line x1="52.5" y1="148.5" x2="52.5" y2="156.5" stroke="#1e293b" stroke-width="1.5" stroke-linecap="round"/><text x="60.0" y="265.0" font-size="12" font-family="sans-serif" fill="#1e293b" text-anchor="middle">U1</text><circle cx="60.0" cy="75.0" r="2.6" fill="#1e293b"/><text x="60.0" y="63.0" font-size="12" font-family="sans-serif" fill="#1e293b" text-anchor="middle">A</text><line x1="60.0" y1="75.0" x2="83.0" y2="75.0" stroke="#1e293b" stroke-width="1.5" stroke-linecap="round"/><rect x="83.0" y="66" width="44" height="18" fill="white" stroke="#1e293b" stroke-width="1.5"/><line x1="127.0" y1="75.0" x2="150.0" y2="75.0" stroke="#1e293b" stroke-width="1.5" stroke-linecap="round"/><text x="105.0" y="60.0" font-size="12" font-family="sans-serif" fill="#1e293b" text-anchor="middle">R1</text><circle cx="150.0" cy="75.0" r="2.6" fill="#1e293b"/><line x1="150.0" y1="75.0" x2="215.0" y2="75.0" stroke="#1e293b" stroke-width="1.5" stroke-linecap="round"/><text x="155.0" y="63.0" font-size="12" font-family="sans-serif" fill="#1e293b" text-anchor="start">B</text><line x1="150.0" y1="75.0" x2="150.0" y2="138.0" stroke="#1e293b" stroke-width="1.5" stroke-linecap="round"/><line x1="150.0" y1="182.0" x2="150.0" y2="245.0" stroke="#1e293b" stroke-width="1.5" stroke-linecap="round"/><rect x="141.0" y="138.0" width="18" height="44" fill="white" stroke="#1e293b" stroke-width="1.5"/><text x="165.0" y="164.0" font-size="12" font-family="sans-serif" fill="#1e293b" text-anchor="start">R2</text><line x1="215.0" y1="75.0" x2="215.0" y2="147.0" stroke="#1e293b" stroke-width="1.5" stroke-linecap="round"/><line x1="215.0" y1="173.0" x2="215.0" y2="245.0" stroke="#1e293b" stroke-width="1.5" stroke-linecap="round"/><circle cx="215" cy="147.0" r="3.5" fill="white" stroke="#1e293b" stroke-width="1.5"/><circle cx="215" cy="173.0" r="3.5" fill="white" stroke="#1e293b" stroke-width="1.5"/><text x="215.0" y="265.0" font-size="12" font-family="sans-serif" fill="#9ca3af" text-anchor="middle" font-style="italic">I_Q = 0</text><line x1="60.0" y1="245.0" x2="215.0" y2="245.0" stroke="#1e293b" stroke-width="1.5" stroke-linecap="round"/><line x1="182.5" y1="245.0" x2="182.5" y2="255.0" stroke="#1e293b" stroke-width="1.5" stroke-linecap="round"/><line x1="174.5" y1="255" x2="190.5" y2="255" stroke="#1e293b" stroke-width="1.8" stroke-linecap="round"/><line x1="177.5" y1="260" x2="187.5" y2="260" stroke="#1e293b" stroke-width="1.5" stroke-linecap="round"/><line x1="180.0" y1="265" x2="185.0" y2="265" stroke="#1e293b" stroke-width="1.2" stroke-linecap="round"/><text x="182.5" y="99.0" font-size="13" font-family="sans-serif" fill="#2563eb" text-anchor="middle">U'_B</text></g>
<g transform="translate(560,0)"><text x="125.0" y="24.0" font-size="13" font-family="sans-serif" fill="#1e293b" text-anchor="middle">Schritt 2 — nur I_Q aktiv</text><line x1="60.0" y1="75.0" x2="60.0" y2="245.0" stroke="#1e293b" stroke-width="2.0" stroke-linecap="round"/><text x="60.0" y="265.0" font-size="12" font-family="sans-serif" fill="#9ca3af" text-anchor="middle" font-style="italic">U1 = 0</text><circle cx="60.0" cy="75.0" r="2.6" fill="#1e293b"/><text x="60.0" y="63.0" font-size="12" font-family="sans-serif" fill="#1e293b" text-anchor="middle">A</text><line x1="60.0" y1="75.0" x2="83.0" y2="75.0" stroke="#1e293b" stroke-width="1.5" stroke-linecap="round"/><rect x="83.0" y="66" width="44" height="18" fill="white" stroke="#1e293b" stroke-width="1.5"/><line x1="127.0" y1="75.0" x2="150.0" y2="75.0" stroke="#1e293b" stroke-width="1.5" stroke-linecap="round"/><text x="105.0" y="60.0" font-size="12" font-family="sans-serif" fill="#1e293b" text-anchor="middle">R1</text><circle cx="150.0" cy="75.0" r="2.6" fill="#1e293b"/><line x1="150.0" y1="75.0" x2="215.0" y2="75.0" stroke="#1e293b" stroke-width="1.5" stroke-linecap="round"/><text x="155.0" y="63.0" font-size="12" font-family="sans-serif" fill="#1e293b" text-anchor="start">B</text><line x1="150.0" y1="75.0" x2="150.0" y2="138.0" stroke="#1e293b" stroke-width="1.5" stroke-linecap="round"/><line x1="150.0" y1="182.0" x2="150.0" y2="245.0" stroke="#1e293b" stroke-width="1.5" stroke-linecap="round"/><rect x="141.0" y="138.0" width="18" height="44" fill="white" stroke="#1e293b" stroke-width="1.5"/><text x="165.0" y="164.0" font-size="12" font-family="sans-serif" fill="#1e293b" text-anchor="start">R2</text><line x1="215.0" y1="75.0" x2="215.0" y2="143.0" stroke="#1e293b" stroke-width="1.5" stroke-linecap="round"/><line x1="215.0" y1="177.0" x2="215.0" y2="245.0" stroke="#1e293b" stroke-width="1.5" stroke-linecap="round"/><circle cx="215" cy="160.0" r="17" fill="white" stroke="#1e293b" stroke-width="1.5"/><line x1="202.2" y1="160.0" x2="227.8" y2="160.0" stroke="#1e293b" stroke-width="1.5" stroke-linecap="round"/><line x1="203.5" y1="152.5" x2="211.5" y2="152.5" stroke="#1e293b" stroke-width="1.5" stroke-linecap="round"/><line x1="207.5" y1="148.5" x2="207.5" y2="156.5" stroke="#1e293b" stroke-width="1.5" stroke-linecap="round"/><text x="215.0" y="265.0" font-size="12" font-family="sans-serif" fill="#1e293b" text-anchor="middle">I_Q</text><line x1="60.0" y1="245.0" x2="215.0" y2="245.0" stroke="#1e293b" stroke-width="1.5" stroke-linecap="round"/><line x1="182.5" y1="245.0" x2="182.5" y2="255.0" stroke="#1e293b" stroke-width="1.5" stroke-linecap="round"/><line x1="174.5" y1="255" x2="190.5" y2="255" stroke="#1e293b" stroke-width="1.8" stroke-linecap="round"/><line x1="177.5" y1="260" x2="187.5" y2="260" stroke="#1e293b" stroke-width="1.5" stroke-linecap="round"/><line x1="180.0" y1="265" x2="185.0" y2="265" stroke="#1e293b" stroke-width="1.2" stroke-linecap="round"/><text x="182.5" y="99.0" font-size="13" font-family="sans-serif" fill="#dc2626" text-anchor="middle">U''_B</text></g>
<text x="405.0" y="306.0" font-size="13" font-family="sans-serif" fill="#1e293b" text-anchor="middle">U_B = U′_B + U″_B</text>
</svg>