<svg xmlns="http://www.w3.org/2000/svg" viewBox="0 0 420 400" width="420" height="400">
<line x1="60" y1="70" x2="310" y2="70" stroke="#1e293b" stroke-width="1.5" stroke-linecap="round"/>
<line x1="60" y1="330" x2="310" y2="330" stroke="#1e293b" stroke-width="1.5" stroke-linecap="round"/>
<line x1="130" y1="95.0" x2="130" y2="117.0" stroke="#1e293b" stroke-width="1.5" stroke-linecap="round"/>
<line x1="130" y1="163.0" x2="130" y2="185.0" stroke="#1e293b" stroke-width="1.5" stroke-linecap="round"/>
<rect x="121.0" y="117.0" width="18" height="46" fill="white" stroke="#1e293b" stroke-width="1.5"/>
<text x="112" y="144" font-size="13" font-family="sans-serif" fill="#1e293b" text-anchor="end">R1</text>
<line x1="130" y1="215.0" x2="130" y2="237.0" stroke="#1e293b" stroke-width="1.5" stroke-linecap="round"/>
<line x1="130" y1="283.0" x2="130" y2="305.0" stroke="#1e293b" stroke-width="1.5" stroke-linecap="round"/>
<rect x="121.0" y="237.0" width="18" height="46" fill="white" stroke="#1e293b" stroke-width="1.5"/>
<text x="112" y="264" font-size="13" font-family="sans-serif" fill="#1e293b" text-anchor="end">R2</text>
<line x1="310" y1="95.0" x2="310" y2="117.0" stroke="#1e293b" stroke-width="1.5" stroke-linecap="round"/>
<line x1="310" y1="163.0" x2="310" y2="185.0" stroke="#1e293b" stroke-width="1.5" stroke-linecap="round"/>
<rect x="301.0" y="117.0" width="18" height="46" fill="white" stroke="#1e293b" stroke-width="1.5"/>
<text x="292" y="144" font-size="13" font-family="sans-serif" fill="#1e293b" text-anchor="end">R3</text>
<line x1="310" y1="215.0" x2="310" y2="237.0" stroke="#1e293b" stroke-width="1.5" stroke-linecap="round"/>
<line x1="310" y1="283.0" x2="310" y2="305.0" stroke="#1e293b" stroke-width="1.5" stroke-linecap="round"/>
<rect x="301.0" y="237.0" width="18" height="46" fill="white" stroke="#1e293b" stroke-width="1.5"/>
<text x="292" y="264" font-size="13" font-family="sans-serif" fill="#1e293b" text-anchor="end">R4</text>
<circle cx="130" cy="200" r="2.6" fill="#1e293b"/>
<circle cx="310" cy="200" r="2.6" fill="#1e293b"/>
<text x="118" y="190" font-size="12" font-family="sans-serif" fill="#1e293b" text-anchor="end">a</text>
<text x="322" y="190" font-size="12" font-family="sans-serif" fill="#1e293b" text-anchor="start">b</text>
<line x1="130" y1="200" x2="203.0" y2="200" stroke="#1e293b" stroke-width="1.5" stroke-linecap="round"/>
<line x1="237.0" y1="200" x2="310" y2="200" stroke="#1e293b" stroke-width="1.5" stroke-linecap="round"/>
<circle cx="220.0" cy="200" r="17" fill="white" stroke="#2563eb" stroke-width="1.5"/>
<text x="220.0" y="205" font-size="14" font-family="sans-serif" fill="#2563eb" text-anchor="middle">V</text>
<text x="220.0" y="174" font-size="13" font-family="sans-serif" fill="#2563eb" text-anchor="middle">U_br</text>
<line x1="60" y1="70" x2="60" y2="183" stroke="#1e293b" stroke-width="1.5" stroke-linecap="round"/>
<line x1="60" y1="217" x2="60" y2="330" stroke="#1e293b" stroke-width="1.5" stroke-linecap="round"/>
<circle cx="60" cy="200" r="17" fill="white" stroke="#1e293b" stroke-width="1.5"/>
<line x1="60" y1="188" x2="60" y2="212" stroke="#1e293b" stroke-width="1.2" stroke-linecap="round"/>
<line x1="51" y1="191" x2="57" y2="191" stroke="#1e293b" stroke-width="1.1" stroke-linecap="round"/>
<line x1="54" y1="188" x2="54" y2="194" stroke="#1e293b" stroke-width="1.1" stroke-linecap="round"/>
<text x="34" y="205" font-size="13" font-family="sans-serif" fill="#1e293b" text-anchor="end">U_e</text>
</svg>