<svg xmlns="http://www.w3.org/2000/svg" viewBox="0 0 640 560" width="640" height="560">
<defs>
<marker id="achse" markerWidth="9" markerHeight="9" refX="4" refY="4" orient="auto"><path d="M0,0 L8,4 L0,8 Z" fill="#1e293b"/></marker>
</defs>
<text x="320.0" y="28" font-size="15" font-family="sans-serif" fill="#1e293b" text-anchor="middle">RL-Glied am Rechtecksignal: Spannung U_L und Strom I (tau = L/R)</text>
<line x1="90.0" y1="40.0" x2="90.0" y2="495.0" stroke="#6b7280" stroke-width="0.75" stroke-dasharray="3,3"/>
<line x1="215.0" y1="40.0" x2="215.0" y2="495.0" stroke="#6b7280" stroke-width="0.75" stroke-dasharray="3,3"/>
<line x1="340.0" y1="40.0" x2="340.0" y2="495.0" stroke="#6b7280" stroke-width="0.75" stroke-dasharray="3,3"/>
<line x1="465.0" y1="40.0" x2="465.0" y2="495.0" stroke="#6b7280" stroke-width="0.75" stroke-dasharray="3,3"/>
<line x1="590.0" y1="40.0" x2="590.0" y2="495.0" stroke="#6b7280" stroke-width="0.75" stroke-dasharray="3,3"/>
<line x1="65" y1="160" x2="65" y2="48" stroke="#1e293b" stroke-width="1.5" marker-end="url(#achse)"/>
<text x="58" y="44" font-size="13" font-family="sans-serif" fill="#1e293b" text-anchor="end">U_in</text>
<polyline points="65.0,70.0 90.0,70.0 90.0,130.0 215.0,130.0 215.0,70.0 340.0,70.0 340.0,130.0 465.0,130.0 465.0,70.0 590.0,70.0 590.0,70.0 600.0,70.0" fill="none" stroke="#1e293b" stroke-width="2"/>
<text x="608" y="134" font-size="12" font-family="sans-serif" fill="#1e293b">0 V</text>
<text x="608" y="74" font-size="12" font-family="sans-serif" fill="#1e293b">U_max</text>
<text x="575" y="515" font-size="12" font-family="sans-serif" fill="#1e293b" text-anchor="end">t</text>
<line x1="65" y1="495" x2="600" y2="495" stroke="#1e293b" stroke-width="1.5" marker-end="url(#achse)"/>
<line x1="65" y1="300" x2="65" y2="193" stroke="#1e293b" stroke-width="1.5" marker-end="url(#achse)"/>
<text x="58" y="203" font-size="13" font-family="sans-serif" fill="#1e293b" text-anchor="end">U_L</text>
<text x="608" y="274" font-size="12" font-family="sans-serif" fill="#1e293b">0 V</text>
<line x1="65" y1="270" x2="600" y2="270" stroke="#6b7280" stroke-width="1" stroke-dasharray="2,3"/>
<polyline points="90.0,215.0 93.1,219.8 96.2,224.2 99.4,228.3 102.5,231.9 105.6,235.3 108.8,238.3 111.9,241.1 115.0,243.6 118.1,246.0 121.2,248.1 124.4,250.0 127.5,251.7 130.6,253.3 133.8,254.8 136.9,256.1 140.0,257.4 143.1,258.5 146.2,259.5 149.4,260.4 152.5,261.2 155.6,262.0 158.8,262.7 161.9,263.4 165.0,263.9 168.1,264.5 171.2,265.0 174.4,265.4 177.5,265.8 180.6,266.2 183.8,266.5 186.9,266.8 190.0,267.1 193.1,267.4 196.2,267.6 199.4,267.8 202.5,268.0 205.6,268.2 208.8,268.3 211.9,268.5 215.0,268.6" fill="none" stroke="#2563eb" stroke-width="2"/>
<polyline points="215.0,325.0 218.1,320.2 221.2,315.8 224.4,311.7 227.5,308.1 230.6,304.7 233.8,301.7 236.9,298.9 240.0,296.4 243.1,294.0 246.2,291.9 249.4,290.0 252.5,288.3 255.6,286.7 258.8,285.2 261.9,283.9 265.0,282.6 268.1,281.5 271.2,280.5 274.4,279.6 277.5,278.8 280.6,278.0 283.8,277.3 286.9,276.6 290.0,276.1 293.1,275.5 296.2,275.0 299.4,274.6 302.5,274.2 305.6,273.8 308.8,273.5 311.9,273.2 315.0,272.9 318.1,272.6 321.2,272.4 324.4,272.2 327.5,272.0 330.6,271.8 333.8,271.7 336.9,271.5 340.0,271.4" fill="none" stroke="#2563eb" stroke-width="2"/>
<polyline points="340.0,215.0 343.1,219.8 346.2,224.2 349.4,228.3 352.5,231.9 355.6,235.3 358.8,238.3 361.9,241.1 365.0,243.6 368.1,246.0 371.2,248.1 374.4,250.0 377.5,251.7 380.6,253.3 383.8,254.8 386.9,256.1 390.0,257.4 393.1,258.5 396.2,259.5 399.4,260.4 402.5,261.2 405.6,262.0 408.8,262.7 411.9,263.4 415.0,263.9 418.1,264.5 421.2,265.0 424.4,265.4 427.5,265.8 430.6,266.2 433.8,266.5 436.9,266.8 440.0,267.1 443.1,267.4 446.2,267.6 449.4,267.8 452.5,268.0 455.6,268.2 458.8,268.3 461.9,268.5 465.0,268.6" fill="none" stroke="#2563eb" stroke-width="2"/>
<polyline points="465.0,325.0 468.1,320.2 471.2,315.8 474.4,311.7 477.5,308.1 480.6,304.7 483.8,301.7 486.9,298.9 490.0,296.4 493.1,294.0 496.2,291.9 499.4,290.0 502.5,288.3 505.6,286.7 508.8,285.2 511.9,283.9 515.0,282.6 518.1,281.5 521.2,280.5 524.4,279.6 527.5,278.8 530.6,278.0 533.8,277.3 536.9,276.6 540.0,276.1 543.1,275.5 546.2,275.0 549.4,274.6 552.5,274.2 555.6,273.8 558.8,273.5 561.9,273.2 565.0,272.9 568.1,272.6 571.2,272.4 574.4,272.2 577.5,272.0 580.6,271.8 583.8,271.7 586.9,271.5 590.0,271.4" fill="none" stroke="#2563eb" stroke-width="2"/>
<polyline points="590.0,215.0 590.0,215.0 590.0,215.0 590.0,215.0 590.0,215.0 590.0,215.0 590.0,215.0 590.0,215.0 590.0,215.0 590.0,215.0 590.0,215.0 590.0,215.0 590.0,215.0 590.0,215.0 590.0,215.0 590.0,215.0 590.0,215.0 590.0,215.0 590.0,215.0 590.0,215.0 590.0,215.0 590.0,215.0 590.0,215.0 590.0,215.0 590.0,215.0 590.0,215.0 590.0,215.0 590.0,215.0 590.0,215.0 590.0,215.0 590.0,215.0 590.0,215.0 590.0,215.0 590.0,215.0 590.0,215.0 590.0,215.0 590.0,215.0 590.0,215.0 590.0,215.0 590.0,215.0 590.0,215.0" fill="none" stroke="#2563eb" stroke-width="2"/>
<text x="98" y="217" font-size="12" font-family="sans-serif" fill="#2563eb">Nadelimpuls (+)</text>
<text x="223.0" y="339" font-size="12" font-family="sans-serif" fill="#2563eb">Nadelimpuls (-)</text>
<line x1="90.0" y1="225.0" x2="124.0" y2="225.0" stroke="#6b7280" stroke-width="1.2"/>
<line x1="90.0" y1="220.0" x2="90.0" y2="230.0" stroke="#6b7280" stroke-width="1.2"/>
<line x1="124.0" y1="220.0" x2="124.0" y2="230.0" stroke="#6b7280" stroke-width="1.2"/>
<text x="107.0" y="245.0" font-size="12" font-family="sans-serif" fill="#6b7280" text-anchor="middle">tau = L/R</text>
<line x1="65" y1="500" x2="65" y2="388" stroke="#1e293b" stroke-width="1.5" marker-end="url(#achse)"/>
<text x="58" y="384" font-size="13" font-family="sans-serif" fill="#1e293b" text-anchor="end">I</text>
<text x="608" y="474" font-size="12" font-family="sans-serif" fill="#1e293b">0</text>
<text x="608" y="414" font-size="12" font-family="sans-serif" fill="#1e293b">I_max</text>
<polyline points="90.0,470.0 93.1,464.7 96.2,459.9 99.4,455.5 102.5,451.5 105.6,447.9 108.8,444.6 111.9,441.5 115.0,438.8 118.1,436.2 121.2,433.9 124.4,431.8 127.5,429.9 130.6,428.2 133.8,426.6 136.9,425.1 140.0,423.8 143.1,422.6 146.2,421.5 149.4,420.5 152.5,419.5 155.6,418.7 158.8,417.9 161.9,417.2 165.0,416.6 168.1,416.0 171.2,415.5 174.4,415.0 177.5,414.6 180.6,414.2 183.8,413.8 186.9,413.5 190.0,413.2 193.1,412.9 196.2,412.6 199.4,412.4 202.5,412.2 205.6,412.0 208.8,411.8 211.9,411.7 215.0,411.5" fill="none" stroke="#dc2626" stroke-width="2"/>
<polyline points="215.0,411.5 218.1,416.7 221.2,421.3 224.4,425.6 227.5,429.5 230.6,433.1 233.8,436.3 236.9,439.3 240.0,442.0 243.1,444.4 246.2,446.7 249.4,448.7 252.5,450.6 255.6,452.3 258.8,453.8 261.9,455.3 265.0,456.6 268.1,457.7 271.2,458.8 274.4,459.8 277.5,460.7 280.6,461.5 283.8,462.3 286.9,462.9 290.0,463.6 293.1,464.1 296.2,464.6 299.4,465.1 302.5,465.5 305.6,465.9 308.8,466.3 311.9,466.6 315.0,466.9 318.1,467.2 321.2,467.4 324.4,467.7 327.5,467.9 330.6,468.0 333.8,468.2 336.9,468.4 340.0,468.5" fill="none" stroke="#dc2626" stroke-width="2"/>
<polyline points="340.0,468.5 343.1,463.4 346.2,458.7 349.4,454.4 352.5,450.5 355.6,447.0 358.8,443.7 361.9,440.8 365.0,438.1 368.1,435.6 371.2,433.3 374.4,431.3 377.5,429.4 380.6,427.7 383.8,426.2 386.9,424.7 390.0,423.4 393.1,422.3 396.2,421.2 399.4,420.2 402.5,419.3 405.6,418.5 408.8,417.7 411.9,417.1 415.0,416.4 418.1,415.9 421.2,415.4 424.4,414.9 427.5,414.5 430.6,414.1 433.8,413.7 436.9,413.4 440.0,413.1 443.1,412.8 446.2,412.6 449.4,412.3 452.5,412.1 455.6,412.0 458.8,411.8 461.9,411.6 465.0,411.5" fill="none" stroke="#dc2626" stroke-width="2"/>
<polyline points="465.0,411.5 468.1,416.6 471.2,421.3 474.4,425.6 477.5,429.5 480.6,433.0 483.8,436.3 486.9,439.2 490.0,441.9 493.1,444.4 496.2,446.7 499.4,448.7 502.5,450.6 505.6,452.3 508.8,453.8 511.9,455.3 515.0,456.6 518.1,457.7 521.2,458.8 524.4,459.8 527.5,460.7 530.6,461.5 533.8,462.3 536.9,462.9 540.0,463.6 543.1,464.1 546.2,464.6 549.4,465.1 552.5,465.5 555.6,465.9 558.8,466.3 561.9,466.6 565.0,466.9 568.1,467.2 571.2,467.4 574.4,467.7 577.5,467.9 580.6,468.0 583.8,468.2 586.9,468.4 590.0,468.5" fill="none" stroke="#dc2626" stroke-width="2"/>
<text x="120" y="400" font-size="12" font-family="sans-serif" fill="#dc2626">Stromaufbau-/Abbaukurve</text>
</svg>