<svg xmlns="http://www.w3.org/2000/svg" viewBox="0 0 620 220" width="620" height="220">
<g transform="translate(35,-10)">
<line x1="20" y1="100" x2="60" y2="100" stroke="#1e293b" stroke-width="1.5" stroke-linecap="round"/>
  
  <rect x="60" y="80" width="80" height="40" rx="0" fill="none" stroke="#1e293b" stroke-width="1.5"/>
  
  <line x1="140" y1="100" x2="180" y2="100" stroke="#1e293b" stroke-width="1.5" stroke-linecap="round"/>

  
  <line x1="70" y1="140" x2="140" y2="60" stroke="#1e293b" stroke-width="1.5" stroke-linecap="round"/>
  
  
  <polyline points="128,62 140,60 138,72" fill="none" stroke="#1e293b" stroke-width="1.5" stroke-linecap="round" stroke-linejoin="round"/>
</g>
<line x1="243" y1="117" x2="243" y2="73" stroke="#1e293b" stroke-width="1.3" stroke-linecap="round"/>
<polyline points="239,80 243,73 247,80" fill="none" stroke="#1e293b" stroke-width="1.3" stroke-linecap="round" stroke-linejoin="round"/>
<line x1="265" y1="73" x2="265" y2="117" stroke="#1e293b" stroke-width="1.3" stroke-linecap="round"/>
<polyline points="261,110 265,117 269,110" fill="none" stroke="#1e293b" stroke-width="1.3" stroke-linecap="round" stroke-linejoin="round"/>
<text x="279" y="100" font-size="15" font-family="serif" fill="#1e293b" text-anchor="start">ϑ</text>
<text x="202.5" y="150" font-size="13" font-family="sans-serif" fill="#1e293b" text-anchor="middle">NTC — Heissleiter (R sinkt mit ϑ)</text>
<g transform="translate(335,-10)">
<line x1="20" y1="100" x2="60" y2="100" stroke="#1e293b" stroke-width="1.5" stroke-linecap="round"/>
  
  <rect x="60" y="80" width="80" height="40" rx="0" fill="none" stroke="#1e293b" stroke-width="1.5"/>
  
  <line x1="140" y1="100" x2="180" y2="100" stroke="#1e293b" stroke-width="1.5" stroke-linecap="round"/>

  
  <line x1="70" y1="140" x2="140" y2="60" stroke="#1e293b" stroke-width="1.5" stroke-linecap="round"/>
  
  
  <polyline points="128,62 140,60 138,72" fill="none" stroke="#1e293b" stroke-width="1.5" stroke-linecap="round" stroke-linejoin="round"/>
</g>
<line x1="543" y1="117" x2="543" y2="73" stroke="#1e293b" stroke-width="1.3" stroke-linecap="round"/>
<polyline points="539,80 543,73 547,80" fill="none" stroke="#1e293b" stroke-width="1.3" stroke-linecap="round" stroke-linejoin="round"/>
<line x1="565" y1="117" x2="565" y2="73" stroke="#1e293b" stroke-width="1.3" stroke-linecap="round"/>
<polyline points="561,80 565,73 569,80" fill="none" stroke="#1e293b" stroke-width="1.3" stroke-linecap="round" stroke-linejoin="round"/>
<text x="579" y="100" font-size="15" font-family="serif" fill="#1e293b" text-anchor="start">ϑ</text>
<text x="502.5" y="150" font-size="13" font-family="sans-serif" fill="#1e293b" text-anchor="middle">PTC — Kaltleiter (R steigt mit ϑ)</text>
</svg>