<svg xmlns="http://www.w3.org/2000/svg" viewBox="0 0 520 430" width="520" height="430">
<line x1="260" y1="210" x2="260.0" y2="220.0" stroke="#92400e" stroke-width="1.5" stroke-linecap="round"/>
<line x1="260.0" y1="60.0" x2="260" y2="70" stroke="#92400e" stroke-width="1.5" stroke-linecap="round"/>
<g transform="rotate(-90.00,260.0,140.0)">
<g transform="translate(160.0,40.0)">
<line x1="20" y1="100" x2="60" y2="100" stroke="#1e293b" stroke-width="1.5" stroke-linecap="round"/>
  
  <rect x="60" y="80" width="80" height="40" fill="none" stroke="#1e293b" stroke-width="1.5"/>
  
  <line x1="140" y1="100" x2="180" y2="100" stroke="#1e293b" stroke-width="1.5" stroke-linecap="round"/>
</g>
</g>
<text x="282.0" y="140.0" font-size="11" font-family="sans-serif" fill="#92400e" text-anchor="middle">Z1</text>
<circle cx="260" cy="70" r="3" fill="white" stroke="#92400e" stroke-width="1.5"/>
<text x="260" y="60" font-size="13" font-family="sans-serif" fill="#92400e" text-anchor="middle">L1</text>
<line x1="260" y1="210" x2="252.9" y2="215.6" stroke="#1e293b" stroke-width="1.5" stroke-linecap="round"/>
<line x1="127.1" y1="314.4" x2="120" y2="320" stroke="#1e293b" stroke-width="1.5" stroke-linecap="round"/>
<g transform="rotate(141.84,190.0,265.0)">
<g transform="translate(90.0,165.0)">
<line x1="20" y1="100" x2="60" y2="100" stroke="#1e293b" stroke-width="1.5" stroke-linecap="round"/>
  
  <rect x="60" y="80" width="80" height="40" fill="none" stroke="#1e293b" stroke-width="1.5"/>
  
  <line x1="140" y1="100" x2="180" y2="100" stroke="#1e293b" stroke-width="1.5" stroke-linecap="round"/>
</g>
</g>
<text x="176.4" y="247.7" font-size="11" font-family="sans-serif" fill="#1e293b" text-anchor="middle">Z2</text>
<circle cx="120" cy="320" r="3" fill="white" stroke="#1e293b" stroke-width="1.5"/>
<text x="110" y="325" font-size="13" font-family="sans-serif" fill="#1e293b" text-anchor="end">L2</text>
<line x1="260" y1="210" x2="267.1" y2="215.6" stroke="#6b7280" stroke-width="1.5" stroke-linecap="round"/>
<line x1="392.9" y1="314.4" x2="400" y2="320" stroke="#6b7280" stroke-width="1.5" stroke-linecap="round"/>
<g transform="rotate(38.16,330.0,265.0)">
<g transform="translate(230.0,165.0)">
<line x1="20" y1="100" x2="60" y2="100" stroke="#1e293b" stroke-width="1.5" stroke-linecap="round"/>
  
  <rect x="60" y="80" width="80" height="40" fill="none" stroke="#1e293b" stroke-width="1.5"/>
  
  <line x1="140" y1="100" x2="180" y2="100" stroke="#1e293b" stroke-width="1.5" stroke-linecap="round"/>
</g>
</g>
<text x="316.4" y="282.3" font-size="11" font-family="sans-serif" fill="#6b7280" text-anchor="middle">Z3</text>
<circle cx="400" cy="320" r="3" fill="white" stroke="#6b7280" stroke-width="1.5"/>
<text x="410" y="325" font-size="13" font-family="sans-serif" fill="#6b7280" text-anchor="start">L3</text>
<line x1="260" y1="210" x2="260" y2="360" stroke="#2563eb" stroke-width="1.5" stroke-linecap="round"/>
<circle cx="260" cy="360" r="3" fill="white" stroke="#2563eb" stroke-width="1.5"/>
<text x="270" y="365" font-size="13" font-family="sans-serif" fill="#2563eb" text-anchor="start">N</text>
<circle cx="260" cy="210" r="3" fill="#1e293b"/>
<text x="272" y="202" font-size="11" font-family="sans-serif" fill="#1e293b" text-anchor="start">Sternpunkt</text>
<text x="260" y="410" font-size="12" font-family="sans-serif" fill="#1e293b" text-anchor="middle">Jede Last liegt zwischen Aussenleiter und Sternpunkt — U_str = 230 V</text>
</svg>