<svg xmlns="http://www.w3.org/2000/svg" viewBox="0 0 300 170" width="300" height="170">

  <line x1="20" y1="20" x2="20" y2="67" stroke="#1e293b" stroke-width="1.5" stroke-linecap="round"/>
  <circle cx="20" cy="85" r="18" fill="none" stroke="#1e293b" stroke-width="1.5"/>
  <line x1="20" y1="72" x2="20" y2="98" stroke="#1e293b" stroke-width="1.5" stroke-linecap="round"/>
  <line x1="8" y1="76" x2="14" y2="76" stroke="#1e293b" stroke-width="1.5" stroke-linecap="round"/>
  <line x1="11" y1="73" x2="11" y2="79" stroke="#1e293b" stroke-width="1.5" stroke-linecap="round"/>
  <line x1="20" y1="103" x2="20" y2="150" stroke="#1e293b" stroke-width="1.5" stroke-linecap="round"/>
  <line x1="20" y1="20" x2="280" y2="20" stroke="#1e293b" stroke-width="1.5" stroke-linecap="round"/>
  <line x1="20" y1="150" x2="280" y2="150" stroke="#1e293b" stroke-width="1.5" stroke-linecap="round"/>
  <line x1="280" y1="20" x2="280" y2="150" stroke="#1e293b" stroke-width="1.5" stroke-linecap="round"/>
  <circle cx="70" cy="20" r="2.5" fill="#1e293b"/>
  <line x1="70" y1="20" x2="70" y2="64" stroke="#1e293b" stroke-width="1.5" stroke-linecap="round"/>
  <line x1="70" y1="64" x2="70" y2="67" stroke="#1e293b" stroke-width="1.5" stroke-linecap="round"/>
  <rect x="63" y="67" width="14" height="36" fill="none" stroke="#1e293b" stroke-width="1.5"/>
  <line x1="70" y1="103" x2="70" y2="106" stroke="#1e293b" stroke-width="1.5" stroke-linecap="round"/>
  <line x1="70" y1="106" x2="70" y2="150" stroke="#1e293b" stroke-width="1.5" stroke-linecap="round"/>
  <circle cx="70" cy="150" r="2.5" fill="#1e293b"/>
  <circle cx="150" cy="20" r="2.5" fill="#1e293b"/>
  <line x1="150" y1="20" x2="150" y2="64" stroke="#1e293b" stroke-width="1.5" stroke-linecap="round"/>
  <line x1="150" y1="64" x2="150" y2="67" stroke="#1e293b" stroke-width="1.5" stroke-linecap="round"/>
  <rect x="143" y="67" width="14" height="36" fill="none" stroke="#1e293b" stroke-width="1.5"/>
  <line x1="150" y1="103" x2="150" y2="106" stroke="#1e293b" stroke-width="1.5" stroke-linecap="round"/>
  <line x1="150" y1="106" x2="150" y2="150" stroke="#1e293b" stroke-width="1.5" stroke-linecap="round"/>
  <circle cx="150" cy="150" r="2.5" fill="#1e293b"/>
  <circle cx="230" cy="20" r="2.5" fill="#1e293b"/>
  <line x1="230" y1="20" x2="230" y2="64" stroke="#1e293b" stroke-width="1.5" stroke-linecap="round"/>
  <line x1="230" y1="64" x2="230" y2="67" stroke="#1e293b" stroke-width="1.5" stroke-linecap="round"/>
  <rect x="223" y="67" width="14" height="36" fill="none" stroke="#1e293b" stroke-width="1.5"/>
  <line x1="230" y1="103" x2="230" y2="106" stroke="#1e293b" stroke-width="1.5" stroke-linecap="round"/>
  <line x1="230" y1="106" x2="230" y2="150" stroke="#1e293b" stroke-width="1.5" stroke-linecap="round"/>
  <circle cx="230" cy="150" r="2.5" fill="#1e293b"/>
  <text x="83" y="85" font-size="11" font-family="sans-serif" fill="#1e293b" text-anchor="start" dominant-baseline="middle">R1</text>
  <text x="163" y="85" font-size="11" font-family="sans-serif" fill="#1e293b" text-anchor="start" dominant-baseline="middle">R2</text>
  <text x="243" y="85" font-size="11" font-family="sans-serif" fill="#1e293b" text-anchor="start" dominant-baseline="middle">R3</text>

</svg>