<svg xmlns="http://www.w3.org/2000/svg" viewBox="0 0 320 120" width="320" height="120">

  <line x1="20" y1="35" x2="20" y2="52" stroke="#1e293b" stroke-width="1.5" stroke-linecap="round"/>
  <circle cx="20" cy="70" r="18" fill="none" stroke="#1e293b" stroke-width="1.5"/>
  <line x1="20" y1="56" x2="20" y2="84" stroke="#1e293b" stroke-width="1.5" stroke-linecap="round"/>
  <line x1="8" y1="61" x2="14" y2="61" stroke="#1e293b" stroke-width="1.5" stroke-linecap="round"/>
  <line x1="11" y1="58" x2="11" y2="64" stroke="#1e293b" stroke-width="1.5" stroke-linecap="round"/>
  <line x1="20" y1="88" x2="20" y2="105" stroke="#1e293b" stroke-width="1.5" stroke-linecap="round"/>
  <line x1="20" y1="35" x2="59" y2="35" stroke="#1e293b" stroke-width="1.5" stroke-linecap="round"/>
  <line x1="59" y1="35" x2="62" y2="35" stroke="#1e293b" stroke-width="1.5" stroke-linecap="round"/>
  <rect x="62" y="28" width="36" height="14" fill="none" stroke="#1e293b" stroke-width="1.5"/>
  <line x1="98" y1="35" x2="101" y2="35" stroke="#1e293b" stroke-width="1.5" stroke-linecap="round"/>
  <line x1="101" y1="35" x2="139" y2="35" stroke="#1e293b" stroke-width="1.5" stroke-linecap="round"/>
  <line x1="139" y1="35" x2="142" y2="35" stroke="#1e293b" stroke-width="1.5" stroke-linecap="round"/>
  <rect x="142" y="28" width="36" height="14" fill="none" stroke="#1e293b" stroke-width="1.5"/>
  <line x1="178" y1="35" x2="181" y2="35" stroke="#1e293b" stroke-width="1.5" stroke-linecap="round"/>
  <line x1="181" y1="35" x2="219" y2="35" stroke="#1e293b" stroke-width="1.5" stroke-linecap="round"/>
  <line x1="219" y1="35" x2="222" y2="35" stroke="#1e293b" stroke-width="1.5" stroke-linecap="round"/>
  <rect x="222" y="28" width="36" height="14" fill="none" stroke="#1e293b" stroke-width="1.5"/>
  <line x1="258" y1="35" x2="261" y2="35" stroke="#1e293b" stroke-width="1.5" stroke-linecap="round"/>
  <line x1="261" y1="35" x2="300" y2="35" stroke="#1e293b" stroke-width="1.5" stroke-linecap="round"/>
  <line x1="300" y1="35" x2="300" y2="105" stroke="#1e293b" stroke-width="1.5" stroke-linecap="round"/>
  <line x1="20" y1="105" x2="300" y2="105" stroke="#1e293b" stroke-width="1.5" stroke-linecap="round"/>
  <text x="80" y="18" font-size="11" font-family="sans-serif" fill="#1e293b" text-anchor="middle" dominant-baseline="middle">R1</text>
  <text x="160" y="18" font-size="11" font-family="sans-serif" fill="#1e293b" text-anchor="middle" dominant-baseline="middle">R2</text>
  <text x="240" y="18" font-size="11" font-family="sans-serif" fill="#1e293b" text-anchor="middle" dominant-baseline="middle">R3</text>

</svg>