<svg xmlns="http://www.w3.org/2000/svg" viewBox="0 0 260 120" width="260" height="120">

  <line x1="20" y1="35" x2="20" y2="52" stroke="#1e293b" stroke-width="1.5" stroke-linecap="round"/>
  <circle cx="20" cy="70" r="18" fill="none" stroke="#1e293b" stroke-width="1.5"/>
  <line x1="20" y1="56" x2="20" y2="84" stroke="#1e293b" stroke-width="1.5" stroke-linecap="round"/>
  <line x1="8" y1="61" x2="14" y2="61" stroke="#1e293b" stroke-width="1.5" stroke-linecap="round"/>
  <line x1="11" y1="58" x2="11" y2="64" stroke="#1e293b" stroke-width="1.5" stroke-linecap="round"/>
  <line x1="20" y1="88" x2="20" y2="105" stroke="#1e293b" stroke-width="1.5" stroke-linecap="round"/>
  <line x1="20" y1="35" x2="59" y2="35" stroke="#1e293b" stroke-width="1.5" stroke-linecap="round"/>
  <line x1="59" y1="35" x2="62" y2="35" stroke="#1e293b" stroke-width="1.5" stroke-linecap="round"/>
  <rect x="62" y="28" width="36" height="14" fill="none" stroke="#1e293b" stroke-width="1.5"/>
  <line x1="98" y1="35" x2="101" y2="35" stroke="#1e293b" stroke-width="1.5" stroke-linecap="round"/>
  <line x1="101" y1="35" x2="159" y2="35" stroke="#1e293b" stroke-width="1.5" stroke-linecap="round"/>
  <path d="M 159,35 A 7,7 0 0 0 173,35 A 7,7 0 0 0 187,35 A 7,7 0 0 0 201,35" fill="none" stroke="#1e293b" stroke-width="1.5" stroke-linecap="round"/>
  <line x1="201" y1="35" x2="240" y2="35" stroke="#1e293b" stroke-width="1.5" stroke-linecap="round"/>
  <line x1="240" y1="35" x2="240" y2="105" stroke="#1e293b" stroke-width="1.5" stroke-linecap="round"/>
  <line x1="20" y1="105" x2="240" y2="105" stroke="#1e293b" stroke-width="1.5" stroke-linecap="round"/>
  <text x="80" y="18" font-size="11" font-family="sans-serif" fill="#1e293b" text-anchor="middle" dominant-baseline="middle">R1</text>
  <text x="180" y="18" font-size="11" font-family="sans-serif" fill="#1e293b" text-anchor="middle" dominant-baseline="middle">L1</text>

</svg>